<?xml version="1.0" encoding="utf-8"?>
<!-- Generator: Adobe Illustrator 24.0.0, SVG Export Plug-In . SVG Version: 6.00 Build 0)  -->
<svg version="1.1" xmlns="http://www.w3.org/2000/svg" xmlns:xlink="http://www.w3.org/1999/xlink" x="0px" y="0px"
	 viewBox="0 0 30 30" style="enable-background:new 0 0 30 30;" xml:space="preserve">
<style type="text/css">
	.st0{fill:#FFFFFF;}
	.st1{display:none;}
	.st2{display:inline;}
	.st3{fill:none;stroke:#FFFFFF;stroke-width:0.75;stroke-linecap:round;stroke-miterlimit:10;}
	.st4{fill:#FFFFFF;}
	.st5{fill:none;stroke:#FFFFFF;stroke-width:2;stroke-linecap:round;stroke-linejoin:round;stroke-miterlimit:10;}
	.st6{display:inline;fill:#FFFFFF;}
	.st7{fill:none;stroke:#FFFFFF;stroke-width:1.7988;stroke-miterlimit:10;}
	.st8{display:inline;fill-rule:evenodd;clip-rule:evenodd;fill:#FFFFFF;}
	.st9{fill:none;stroke:#CDE081;stroke-width:1.5;stroke-miterlimit:10;}
	.st10{display:inline;fill:none;stroke:#FFFFFF;stroke-width:1.5324;stroke-miterlimit:10;}
	.st11{fill:none;stroke:#FFFFFF;stroke-width:1.5;stroke-miterlimit:10;}
	.st12{display:inline;fill:none;stroke:#CDE081;stroke-width:1.5;stroke-miterlimit:10;}
</style>
<g id="refresh">
	<g>
		<path class="st0" d="M19.6,14.5l-2.4,0c-0.3,0-0.5,0.3-0.4,0.6l3.9,6.2c0.2,0.3,0.6,0.3,0.7,0l3.9-6.2c0.2-0.3,0-0.6-0.4-0.6
			l-2.4,0"/>
		<g>
			<path class="st0" d="M13.1,23.4c-4.8-0.2-8.5-4.2-8.4-9.1c0.1-4.6,4-8.4,8.6-8.6c5-0.1,9.1,3.9,9.1,8.8h-2.4
				c0-3.6-2.9-6.5-6.5-6.4C10,8.2,7.1,11.1,7,14.5c0,3.5,2.6,6.3,6,6.5c0.2,0,0.4,0.2,0.4,0.4V23C13.5,23.2,13.3,23.4,13.1,23.4z"/>
		</g>
	</g>
</g>
<g id="um" class="st1">
	<g class="st2">
		<path class="st0" d="M19.5,22.4H8.9c-1.1,0-1.9-0.9-1.9-1.9V7.9c0-1.1,0.9-1.9,1.9-1.9h10.7c1.1,0,1.9,0.9,1.9,1.9v12.6
			C21.5,21.5,20.6,22.4,19.5,22.4z"/>
		<path class="st3" d="M23.1,7.9V22c0,1.1-0.9,1.9-1.9,1.9H9"/>
		<g>
			<path class="st4" d="M15.6,18.5c0,0.6-0.5,1.2-1.2,1.2c-0.7,0-1.2-0.5-1.2-1.2v-4.4H13c-0.5,0-0.9-0.4-0.9-0.9s0.4-0.9,0.9-0.9
				h1.4c0.6,0,1.2,0.5,1.2,1.2V18.5z M14.4,11.1c-0.8,0-1.4-0.6-1.4-1.4s0.6-1.4,1.4-1.4c0.8,0,1.4,0.6,1.4,1.4S15.2,11.1,14.4,11.1
				z"/>
		</g>
	</g>
</g>
<g id="history" class="st1">
	<g class="st2">
		<path class="st0" d="M10.2,14.7l2.3,0c0.3,0,0.5,0.3,0.3,0.6l-3.6,5.8c-0.2,0.2-0.5,0.2-0.7,0l-3.6-5.8c-0.2-0.2,0-0.6,0.3-0.6
			l2.3,0"/>
		<polyline class="st5" points="19.5,16.8 15.9,15.1 15.9,10.8 		"/>
		<path class="st0" d="M16.6,5.9c-5-0.1-9.1,3.9-9.1,8.8h2.4c0-3.6,2.9-6.5,6.5-6.4c3.4,0,6.3,2.9,6.3,6.3c0.1,3.6-2.9,6.5-6.4,6.5
			c0,0,0,0,0,0c0,0-0.9,0-1.7-0.3c-0.2-0.1-0.4,0-0.5,0.2l-0.6,1.5c-0.1,0.2,0,0.4,0.2,0.5c1.2,0.4,2.3,0.4,2.5,0.4c0,0,0,0,0,0
			c5,0,9-4.1,8.8-9.1C25,9.9,21.2,6,16.6,5.9z"/>
	</g>
</g>
<g id="pdf" class="st1">
	<path class="st6" d="M21.5,23.4h-13c-1.1,0-2-0.9-2-2v-13c0-1.1,0.9-2,2-2h13c1.1,0,2,0.9,2,2v13C23.5,22.5,22.6,23.4,21.5,23.4z"
		/>
	<g class="st2">
		<path class="st4" d="M8.2,17.6c0,0,0-0.1,0-0.1v-5.1c0,0,0-0.1,0-0.1c0,0,0.1,0,0.1,0h1.9c0.4,0,0.8,0.1,1,0.2
			c0.3,0.2,0.5,0.4,0.6,0.6c0.1,0.3,0.2,0.6,0.2,0.9c0,0.3-0.1,0.7-0.2,0.9c-0.1,0.3-0.4,0.5-0.6,0.6c-0.3,0.2-0.6,0.2-1.1,0.2h-1
			v1.7c0,0,0,0.1,0,0.1c0,0-0.1,0-0.1,0H8.3C8.3,17.6,8.2,17.6,8.2,17.6z M10.1,15c0.2,0,0.4,0,0.6-0.1c0.2-0.1,0.3-0.2,0.3-0.3
			c0.1-0.2,0.1-0.3,0.1-0.5c0-0.2,0-0.4-0.1-0.5c-0.1-0.1-0.2-0.3-0.3-0.3c-0.2-0.1-0.4-0.1-0.6-0.1H9.2v2H10.1z"/>
		<path class="st4" d="M13,17.6c0,0,0-0.1,0-0.1v-5.1c0,0,0-0.1,0-0.1c0,0,0.1,0,0.1,0h1.7c0.5,0,1,0.1,1.4,0.3
			c0.4,0.2,0.7,0.5,0.9,0.9c0.2,0.4,0.3,0.9,0.3,1.4c0,0.6-0.1,1-0.3,1.5c-0.2,0.4-0.5,0.7-0.9,0.9c-0.4,0.2-0.9,0.3-1.4,0.3h-1.7
			C13.1,17.6,13,17.6,13,17.6z M14.7,16.8c0.4,0,0.7-0.1,0.9-0.2c0.3-0.1,0.4-0.3,0.6-0.6c0.1-0.3,0.2-0.6,0.2-1
			c0-0.4-0.1-0.8-0.2-1c-0.1-0.3-0.3-0.5-0.6-0.6c-0.2-0.1-0.6-0.2-0.9-0.2h-0.8v3.7H14.7z"/>
		<path class="st4" d="M18.4,17.6c0,0,0-0.1,0-0.1v-5.1c0,0,0-0.1,0-0.1c0,0,0.1,0,0.1,0h3.2c0,0,0.1,0,0.1,0c0,0,0,0.1,0,0.1
			c0,0,0,0,0,0l-0.1,0.5c0,0,0,0.1-0.1,0.1c0,0-0.1,0-0.1,0h-2.3v1.5h2.1c0,0,0.1,0,0.1,0c0,0,0,0.1,0,0.1v0.5c0,0,0,0.1,0,0.1
			c0,0-0.1,0-0.1,0h-2.1v2.1c0,0,0,0.1,0,0.1c0,0-0.1,0-0.1,0h-0.7C18.5,17.6,18.4,17.6,18.4,17.6z"/>
	</g>
</g>
<g id="language" class="st1">
	<g class="st2">
		<g>
			<path class="st0" d="M6.8,24.2c-0.2,0-0.4-0.1-0.6-0.2C6,23.8,5.9,23.5,6,23.2l1.2-3.5C6.4,18.3,6,16.8,6,15.2c0-5,4.1-9,9-9
				s9,4,9,9c0,5-4.1,9-9,9c-1.6,0-3.1-0.4-4.5-1.2L7,24.2C6.9,24.2,6.8,24.2,6.8,24.2z M10.6,21.4c0.1,0,0.3,0,0.4,0.1
				c1.2,0.8,2.6,1.2,4,1.2c4.1,0,7.5-3.3,7.5-7.4c0-4.1-3.3-7.4-7.5-7.4s-7.5,3.3-7.5,7.4c0,1.4,0.4,2.8,1.2,4
				c0.1,0.2,0.2,0.4,0.1,0.7L8,22.2l2.3-0.8C10.4,21.4,10.5,21.4,10.6,21.4z"/>
		</g>
		<g>
			<path class="st0" d="M15,24.2c-2.6,0-4.6-3.9-4.6-9s2-9,4.6-9s4.6,3.9,4.6,9S17.6,24.2,15,24.2z M15,7.8c-1.4,0-3.1,3-3.1,7.4
				c0,4.4,1.6,7.4,3.1,7.4c1.4,0,3.1-3,3.1-7.4C18.1,10.9,16.4,7.8,15,7.8z"/>
		</g>
		<g>
			<path class="st0" d="M15,13.3c-3,0-5.7-0.7-7.4-1.9c-0.4-0.3-0.4-0.7-0.2-1.1c0.3-0.4,0.7-0.4,1.1-0.2c1.4,1,3.9,1.6,6.5,1.6
				c2.6,0,5.1-0.6,6.5-1.6c0.4-0.3,0.9-0.2,1.1,0.2c0.3,0.4,0.2,0.8-0.2,1.1C20.7,12.6,18,13.3,15,13.3z"/>
		</g>
		<g>
			<path class="st0" d="M8,20.6c-0.2,0-0.5-0.1-0.6-0.3c-0.3-0.3-0.2-0.8,0.2-1.1c1.6-1.2,4.5-2,7.5-2c3,0,5.7,0.7,7.4,1.9
				c0.4,0.3,0.4,0.7,0.2,1.1c-0.3,0.4-0.7,0.4-1.1,0.2c-1.4-1-3.9-1.6-6.5-1.6c-2.7,0-5.2,0.6-6.6,1.7C8.3,20.5,8.1,20.6,8,20.6z"/>
		</g>
	</g>
</g>
<g id="color" class="st1">
	<g class="st2">
		<g>
			<path class="st0" d="M15,24.2c-5,0-9-4-9-9c0-5,4.1-9,9-9c5,0,9,4,9,9C24,20.2,20,24.2,15,24.2z M15,8.4c-3.8,0-6.9,3.1-6.9,6.9
				c0,3.8,3.1,6.9,6.9,6.9s6.9-3.1,6.9-6.9C21.9,11.4,18.8,8.4,15,8.4z"/>
		</g>
		<g>
			<path class="st0" d="M15,23.2c-4.4,0-8-3.6-8-7.9s3.6-7.9,8-7.9"/>
		</g>
	</g>
</g>
<g id="zoom_x5F_in" class="st1">
	<g class="st2">
		<polyline class="st7" points="7.8,11.5 7.8,7.4 11.8,7.4 		"/>
		<polyline class="st7" points="22.2,11.5 22.2,7.4 18.2,7.4 		"/>
		<polyline class="st7" points="22.2,17.7 22.2,21.8 18.2,21.8 		"/>
		<polyline class="st7" points="7.8,17.7 7.8,21.8 11.8,21.8 		"/>
	</g>
</g>
<g id="zoom_x5F_out" class="st1">
	<g class="st2">
		<polyline class="st7" points="11.8,7.8 11.8,11.9 7.8,11.9 		"/>
		<polyline class="st7" points="18.2,7.8 18.2,11.9 22.2,11.9 		"/>
		<polyline class="st7" points="18.2,22.2 18.2,18.1 22.2,18.1 		"/>
		<polyline class="st7" points="11.8,22.2 11.8,18.1 7.8,18.1 		"/>
	</g>
</g>
<g id="info" class="st1">
	<path class="st8" d="M15,7.3c-4.3,0-7.8,3.5-7.8,7.7c0,4.3,3.5,7.8,7.8,7.8c4.3,0,7.7-3.5,7.7-7.8C22.8,10.7,19.3,7.3,15,7.3z
		 M16.7,19.9c0,0.7-0.6,1.3-1.3,1.3c-0.7,0-1.3-0.6-1.3-1.3v-5.2h-0.3c-0.5,0-0.9-0.4-0.9-0.9c0-0.5,0.4-0.9,0.9-0.9h1.6
		c0,0,0,0,0,0c0.7,0,1.2,0.6,1.2,1.3V19.9z M15.4,11.9c-0.8,0-1.5-0.7-1.5-1.5c0-0.8,0.7-1.5,1.5-1.5c0.8,0,1.5,0.7,1.5,1.5
		C16.9,11.2,16.3,11.9,15.4,11.9z"/>
</g>
<g id="_x34_divisions_x5F_1" class="st1">
	<g class="st2">
		<rect x="7.8" y="16.8" class="st9" width="5.4" height="5.4"/>
		<rect x="16.8" y="16.8" class="st9" width="5.4" height="5.4"/>
		<rect x="7.8" y="7.8" class="st9" width="5.4" height="5.4"/>
		<rect x="16.8" y="7.8" class="st9" width="5.4" height="5.4"/>
	</g>
	<rect x="63.3" y="7.5" class="st10" width="14.5" height="14.5"/>
</g>
<g id="_x34_divisions_x5F_2" class="st1">
	<g class="st2">
		<rect x="7.8" y="16.8" class="st9" width="5.4" height="5.4"/>
		<rect x="16.8" y="16.8" class="st9" width="5.4" height="5.4"/>
		<rect x="7.8" y="7.8" class="st9" width="5.4" height="5.4"/>
		<rect x="16.8" y="7.8" class="st9" width="5.4" height="5.4"/>
	</g>
</g>
<g id="_x32_divisions_x5F_1" class="st1">
	<g class="st2">
		<rect x="7.8" y="16.8" class="st11" width="14.5" height="5.4"/>
		<rect x="7.8" y="7.8" class="st11" width="14.5" height="5.4"/>
	</g>
</g>
<g id="_x32_divisions_x5F_2" class="st1">
	<g class="st2">
		<rect x="7.8" y="16.8" class="st9" width="14.5" height="5.4"/>
		<rect x="7.8" y="7.8" class="st9" width="14.5" height="5.4"/>
	</g>
</g>
<g id="_x31_divisions_x5F_1" class="st1">
	<rect x="7.8" y="7.8" class="st10" width="14.5" height="14.5"/>
</g>
<g id="_x31_divisions_x5F_2" class="st1">
	<rect x="7.8" y="7.8" class="st12" width="14.5" height="14.5"/>
</g>
</svg>
